<svg width="1334" height="1363" viewBox="0 0 1334 1363" fill="none" xmlns="http://www.w3.org/2000/svg">
<path d="M992.508 273.351C852.54 319.099 771.317 454.764 817.153 594.732L842.706 672.795L973.278 630.119L961.512 594.03C938.594 524.046 976.791 448.793 1046.77 425.875L1307.22 340.7L1256.9 186.946L992.684 273.351H992.508Z" fill="black"/>
<path d="M1165.84 662.615C1219.15 630.071 1235.99 560.469 1203.45 507.154C1170.9 453.839 1101.3 437.001 1047.99 469.544C994.671 502.088 977.832 571.69 1010.38 625.005C1042.92 678.32 1112.52 695.158 1165.84 662.615Z" fill="black"/>
<path d="M432.812 278.267C433.075 425.524 537.041 544.681 684.297 544.417L766.487 544.242L766.223 406.908H728.202C654.618 407.171 594.82 347.549 594.644 273.965L594.117 0L432.285 0.351237L432.812 278.355V278.267Z" fill="black"/>
<path d="M772.828 369.921C833.59 355.445 871.112 294.453 856.637 233.691C842.161 172.929 781.169 135.406 720.407 149.882C659.645 164.358 622.123 225.35 636.598 286.112C651.074 346.874 712.066 384.396 772.828 369.921Z" fill="black"/>
<path d="M264.569 811.971C404.713 857.193 550.125 795.2 595.347 655.056L620.548 576.818L489.8 534.67L478.121 570.847C455.554 640.919 380.39 679.379 310.318 656.724L49.6122 572.603L0 726.621L264.569 811.971Z" fill="black"/>
<path d="M456.917 516.922C461.926 454.661 415.515 400.127 353.253 395.118C290.992 390.108 236.458 436.52 231.449 498.782C226.44 561.043 272.851 615.576 335.113 620.586C397.374 625.595 451.908 579.184 456.917 516.922Z" fill="black"/>
<path d="M720.212 1136.95C806.528 1017.62 792.479 860.178 673.234 773.862L606.674 725.655L526.153 836.909L556.887 859.213C616.509 902.327 629.944 985.746 586.742 1045.37L426.139 1267.35L557.238 1362.18L720.212 1136.95Z" fill="black"/>
<path d="M559.944 1010.7C583.948 953.03 556.66 886.823 498.994 862.819C441.328 838.815 375.121 866.103 351.117 923.769C327.113 981.435 354.401 1047.64 412.067 1071.65C469.733 1095.65 535.94 1068.36 559.944 1010.7Z" fill="black"/>
<path d="M1170.06 804.068C1083.3 685.087 929.197 649.787 810.216 736.543L743.832 785.014L824.792 896.004L855.437 873.613C914.884 830.235 998.303 843.231 1041.68 902.766L1203.16 1124.13L1333.91 1028.77L1170.06 804.156V804.068Z" fill="black"/>
<path d="M1012.77 1076.87C1053.41 1029.44 1047.92 958.045 1000.49 917.396C953.069 876.747 881.67 882.241 841.021 929.666C800.372 977.092 805.866 1048.49 853.292 1089.14C900.718 1129.79 972.117 1124.3 1012.77 1076.87Z" fill="black"/>
</svg>
